# Blender 4.4.3
# www.blender.org
mtllib Conveier.mtl
o Belt
v -0.294710 2.004635 1.109012
v -0.294710 2.117261 1.109012
v -0.294710 2.004635 -0.621830
v -0.294710 2.117261 -0.621830
v -0.119050 2.004635 1.109012
v -0.119050 2.117261 1.109012
v -0.119050 2.004635 -0.621830
v -0.119050 2.117261 -0.621830
v -7.915416 2.004635 1.109011
v -7.915416 2.117261 1.109011
v -7.915416 2.004635 -0.621830
v -7.915416 2.117261 -0.621830
v -7.750933 2.004635 1.109011
v -7.750933 2.117261 1.109011
v -7.750933 2.004635 -0.621830
v -7.750933 2.117261 -0.621830
v -7.708565 2.004635 1.109011
v -7.708565 2.117261 1.109011
v -7.708565 2.004635 -0.621830
v -7.708565 2.117261 -0.621830
v -7.555011 2.004635 1.109011
v -7.555011 2.117261 1.109011
v -7.555011 2.004635 -0.621830
v -7.555011 2.117261 -0.621830
v -7.518565 2.004635 1.109011
v -7.518565 2.117261 1.109011
v -7.518565 2.004635 -0.621830
v -7.518565 2.117261 -0.621830
v -7.365011 2.004635 1.109011
v -7.365011 2.117261 1.109011
v -7.365011 2.004635 -0.621830
v -7.365011 2.117261 -0.621830
v -7.328565 2.004635 1.109011
v -7.328565 2.117261 1.109011
v -7.328565 2.004635 -0.621830
v -7.328565 2.117261 -0.621830
v -7.175011 2.004635 1.109011
v -7.175011 2.117261 1.109011
v -7.175011 2.004635 -0.621830
v -7.175011 2.117261 -0.621830
v -7.138565 2.004635 1.109011
v -7.138565 2.117261 1.109011
v -7.138565 2.004635 -0.621830
v -7.138565 2.117261 -0.621830
v -6.985011 2.004635 1.109011
v -6.985011 2.117261 1.109011
v -6.985011 2.004635 -0.621830
v -6.985011 2.117261 -0.621830
v -6.948565 2.004635 1.109011
v -6.948565 2.117261 1.109011
v -6.948565 2.004635 -0.621830
v -6.948565 2.117261 -0.621830
v -6.795011 2.004635 1.109011
v -6.795011 2.117261 1.109011
v -6.795011 2.004635 -0.621830
v -6.795011 2.117261 -0.621830
v -6.758565 2.004635 1.109011
v -6.758565 2.117261 1.109011
v -6.758565 2.004635 -0.621830
v -6.758565 2.117261 -0.621830
v -6.605011 2.004635 1.109011
v -6.605011 2.117261 1.109011
v -6.605011 2.004635 -0.621830
v -6.605011 2.117261 -0.621830
v -6.568565 2.004635 1.109011
v -6.568565 2.117261 1.109011
v -6.568565 2.004635 -0.621830
v -6.568565 2.117261 -0.621830
v -6.415010 2.004635 1.109011
v -6.415010 2.117261 1.109011
v -6.415010 2.004635 -0.621830
v -6.415010 2.117261 -0.621830
v -6.378565 2.004635 1.109011
v -6.378565 2.117261 1.109011
v -6.378565 2.004635 -0.621830
v -6.378565 2.117261 -0.621830
v -6.225010 2.004635 1.109011
v -6.225010 2.117261 1.109011
v -6.225010 2.004635 -0.621830
v -6.225010 2.117261 -0.621830
v -6.188565 2.004635 1.109011
v -6.188565 2.117261 1.109011
v -6.188565 2.004635 -0.621830
v -6.188565 2.117261 -0.621830
v -6.035010 2.004635 1.109011
v -6.035010 2.117261 1.109011
v -6.035010 2.004635 -0.621830
v -6.035010 2.117261 -0.621830
v -5.998565 2.004635 1.109011
v -5.998565 2.117261 1.109011
v -5.998565 2.004635 -0.621830
v -5.998565 2.117261 -0.621830
v -5.845011 2.004635 1.109011
v -5.845011 2.117261 1.109011
v -5.845011 2.004635 -0.621830
v -5.845011 2.117261 -0.621830
v -5.428565 2.004635 1.109011
v -5.428565 2.117261 1.109011
v -5.428565 2.004635 -0.621830
v -5.428565 2.117261 -0.621830
v -5.275010 2.004635 1.109011
v -5.275010 2.117261 1.109011
v -5.275010 2.004635 -0.621830
v -5.275010 2.117261 -0.621830
v -5.808565 2.004635 1.109011
v -5.808565 2.117261 1.109011
v -5.808565 2.004635 -0.621830
v -5.808565 2.117261 -0.621830
v -5.655010 2.004635 1.109011
v -5.655010 2.117261 1.109011
v -5.655010 2.004635 -0.621830
v -5.655010 2.117261 -0.621830
v -5.618565 2.004635 1.109011
v -5.618565 2.117261 1.109011
v -5.618565 2.004635 -0.621830
v -5.618565 2.117261 -0.621830
v -5.465010 2.004635 1.109011
v -5.465010 2.117261 1.109011
v -5.465010 2.004635 -0.621830
v -5.465010 2.117261 -0.621830
v -2.958565 2.004635 1.109011
v -2.958565 2.117261 1.109011
v -2.958565 2.004635 -0.621830
v -2.958565 2.117261 -0.621830
v -2.805010 2.004635 1.109011
v -2.805010 2.117261 1.109011
v -2.805010 2.004635 -0.621830
v -2.805010 2.117261 -0.621830
v -3.148565 2.004635 1.109011
v -3.148565 2.117261 1.109011
v -3.148565 2.004635 -0.621830
v -3.148565 2.117261 -0.621830
v -2.995010 2.004635 1.109011
v -2.995010 2.117261 1.109011
v -2.995010 2.004635 -0.621830
v -2.995010 2.117261 -0.621830
v -2.768564 2.004635 1.109011
v -2.768564 2.117261 1.109011
v -2.768564 2.004635 -0.621830
v -2.768564 2.117261 -0.621830
v -2.615010 2.004635 1.109011
v -2.615010 2.117261 1.109011
v -2.615010 2.004635 -0.621830
v -2.615010 2.117261 -0.621830
v -3.338565 2.004635 1.109011
v -3.338565 2.117261 1.109011
v -3.338565 2.004635 -0.621830
v -3.338565 2.117261 -0.621830
v -3.185010 2.004635 1.109011
v -3.185010 2.117261 1.109011
v -3.185010 2.004635 -0.621830
v -3.185010 2.117261 -0.621830
v -3.528565 2.004635 1.109011
v -3.528565 2.117261 1.109011
v -3.528565 2.004635 -0.621830
v -3.528565 2.117261 -0.621830
v -3.375010 2.004635 1.109011
v -3.375010 2.117261 1.109011
v -3.375010 2.004635 -0.621830
v -3.375010 2.117261 -0.621830
v -3.718565 2.004635 1.109011
v -3.718565 2.117261 1.109011
v -3.718565 2.004635 -0.621830
v -3.718565 2.117261 -0.621830
v -3.565011 2.004635 1.109011
v -3.565011 2.117261 1.109011
v -3.565011 2.004635 -0.621830
v -3.565011 2.117261 -0.621830
v -3.908565 2.004635 1.109011
v -3.908565 2.117261 1.109011
v -3.908565 2.004635 -0.621830
v -3.908565 2.117261 -0.621830
v -3.755011 2.004635 1.109011
v -3.755011 2.117261 1.109011
v -3.755011 2.004635 -0.621830
v -3.755011 2.117261 -0.621830
v -4.098566 2.004635 1.109011
v -4.098566 2.117261 1.109011
v -4.098566 2.004635 -0.621830
v -4.098566 2.117261 -0.621830
v -3.945011 2.004635 1.109011
v -3.945011 2.117261 1.109011
v -3.945011 2.004635 -0.621830
v -3.945011 2.117261 -0.621830
v -4.288565 2.004635 1.109011
v -4.288565 2.117261 1.109011
v -4.288565 2.004635 -0.621830
v -4.288565 2.117261 -0.621830
v -4.135011 2.004635 1.109011
v -4.135011 2.117261 1.109011
v -4.135011 2.004635 -0.621830
v -4.135011 2.117261 -0.621830
v -4.478565 2.004635 1.109011
v -4.478565 2.117261 1.109011
v -4.478565 2.004635 -0.621830
v -4.478565 2.117261 -0.621830
v -4.325011 2.004635 1.109011
v -4.325011 2.117261 1.109011
v -4.325011 2.004635 -0.621830
v -4.325011 2.117261 -0.621830
v -4.668565 2.004635 1.109011
v -4.668565 2.117261 1.109011
v -4.668565 2.004635 -0.621830
v -4.668565 2.117261 -0.621830
v -4.515010 2.004635 1.109011
v -4.515010 2.117261 1.109011
v -4.515010 2.004635 -0.621830
v -4.515010 2.117261 -0.621830
v -4.858565 2.004635 1.109011
v -4.858565 2.117261 1.109011
v -4.858565 2.004635 -0.621830
v -4.858565 2.117261 -0.621830
v -4.705011 2.004635 1.109011
v -4.705011 2.117261 1.109011
v -4.705011 2.004635 -0.621830
v -4.705011 2.117261 -0.621830
v -5.048565 2.004635 1.109011
v -5.048565 2.117261 1.109011
v -5.048565 2.004635 -0.621830
v -5.048565 2.117261 -0.621830
v -4.895010 2.004635 1.109011
v -4.895010 2.117261 1.109011
v -4.895010 2.004635 -0.621830
v -4.895010 2.117261 -0.621830
v -5.238565 2.004635 1.109011
v -5.238565 2.117261 1.109011
v -5.238565 2.004635 -0.621830
v -5.238565 2.117261 -0.621830
v -5.085011 2.004635 1.109011
v -5.085011 2.117261 1.109011
v -5.085011 2.004635 -0.621830
v -5.085011 2.117261 -0.621830
v -2.578565 2.004635 1.109011
v -2.578565 2.117261 1.109011
v -2.578565 2.004635 -0.621830
v -2.578565 2.117261 -0.621830
v -2.425011 2.004635 1.109011
v -2.425011 2.117261 1.109011
v -2.425011 2.004635 -0.621830
v -2.425011 2.117261 -0.621830
v -2.388565 2.004635 1.109011
v -2.388565 2.117261 1.109011
v -2.388565 2.004635 -0.621830
v -2.388565 2.117261 -0.621830
v -2.235011 2.004635 1.109011
v -2.235011 2.117261 1.109011
v -2.235011 2.004635 -0.621830
v -2.235011 2.117261 -0.621830
v -2.198565 2.004635 1.109011
v -2.198565 2.117261 1.109011
v -2.198565 2.004635 -0.621830
v -2.198565 2.117261 -0.621830
v -2.045011 2.004635 1.109011
v -2.045011 2.117261 1.109011
v -2.045011 2.004635 -0.621830
v -2.045011 2.117261 -0.621830
v -2.008565 2.004635 1.109011
v -2.008565 2.117261 1.109011
v -2.008565 2.004635 -0.621830
v -2.008565 2.117261 -0.621830
v -1.855010 2.004635 1.109011
v -1.855010 2.117261 1.109011
v -1.855010 2.004635 -0.621830
v -1.855010 2.117261 -0.621830
v -1.818565 2.004635 1.109011
v -1.818565 2.117261 1.109011
v -1.818565 2.004635 -0.621830
v -1.818565 2.117261 -0.621830
v -1.665011 2.004635 1.109011
v -1.665011 2.117261 1.109011
v -1.665011 2.004635 -0.621830
v -1.665011 2.117261 -0.621830
v -1.248565 2.004635 1.109011
v -1.248565 2.117261 1.109011
v -1.248565 2.004635 -0.621830
v -1.248565 2.117261 -0.621830
v -1.095010 2.004635 1.109011
v -1.095010 2.117261 1.109011
v -1.095010 2.004635 -0.621830
v -1.095010 2.117261 -0.621830
v -1.628565 2.004635 1.109011
v -1.628565 2.117261 1.109011
v -1.628565 2.004635 -0.621830
v -1.628565 2.117261 -0.621830
v -1.475010 2.004635 1.109011
v -1.475010 2.117261 1.109011
v -1.475010 2.004635 -0.621830
v -1.475010 2.117261 -0.621830
v -1.438565 2.004635 1.109011
v -1.438565 2.117261 1.109011
v -1.438565 2.004635 -0.621830
v -1.438565 2.117261 -0.621830
v -1.285010 2.004635 1.109011
v -1.285010 2.117261 1.109011
v -1.285010 2.004635 -0.621830
v -1.285010 2.117261 -0.621830
v -0.488565 2.004635 1.109011
v -0.488565 2.117261 1.109011
v -0.488565 2.004635 -0.621830
v -0.488565 2.117261 -0.621830
v -0.335010 2.004635 1.109011
v -0.335010 2.117261 1.109011
v -0.335010 2.004635 -0.621830
v -0.335010 2.117261 -0.621830
v -0.678565 2.004635 1.109011
v -0.678565 2.117261 1.109011
v -0.678565 2.004635 -0.621830
v -0.678565 2.117261 -0.621830
v -0.525010 2.004635 1.109011
v -0.525010 2.117261 1.109011
v -0.525010 2.004635 -0.621830
v -0.525010 2.117261 -0.621830
v -0.868565 2.004635 1.109011
v -0.868565 2.117261 1.109011
v -0.868565 2.004635 -0.621830
v -0.868565 2.117261 -0.621830
v -0.715010 2.004635 1.109011
v -0.715010 2.117261 1.109011
v -0.715010 2.004635 -0.621830
v -0.715010 2.117261 -0.621830
v -1.058565 2.004635 1.109011
v -1.058565 2.117261 1.109011
v -1.058565 2.004635 -0.621830
v -1.058565 2.117261 -0.621830
v -0.905010 2.004635 1.109011
v -0.905010 2.117261 1.109011
v -0.905010 2.004635 -0.621830
v -0.905010 2.117261 -0.621830
vn -1.0000 -0.0000 -0.0000
vn -0.0000 -0.0000 -1.0000
vn 1.0000 -0.0000 -0.0000
vn -0.0000 -0.0000 1.0000
vn -0.0000 -1.0000 -0.0000
vn -0.0000 1.0000 -0.0000
vt 0.375000 0.000000
vt 0.625000 0.000000
vt 0.625000 0.250000
vt 0.375000 0.250000
vt 0.625000 0.500000
vt 0.375000 0.500000
vt 0.625000 0.750000
vt 0.375000 0.750000
vt 0.625000 1.000000
vt 0.375000 1.000000
vt 0.125000 0.500000
vt 0.125000 0.750000
vt 0.875000 0.500000
vt 0.875000 0.750000
s 0
f 1/1/1 2/2/1 4/3/1 3/4/1
f 3/4/2 4/3/2 8/5/2 7/6/2
f 7/6/3 8/5/3 6/7/3 5/8/3
f 5/8/4 6/7/4 2/9/4 1/10/4
f 3/11/5 7/6/5 5/8/5 1/12/5
f 8/5/6 4/13/6 2/14/6 6/7/6
f 9/1/1 10/2/1 12/3/1 11/4/1
f 11/4/2 12/3/2 16/5/2 15/6/2
f 15/6/3 16/5/3 14/7/3 13/8/3
f 13/8/4 14/7/4 10/9/4 9/10/4
f 11/11/5 15/6/5 13/8/5 9/12/5
f 16/5/6 12/13/6 10/14/6 14/7/6
f 17/1/1 18/2/1 20/3/1 19/4/1
f 19/4/2 20/3/2 24/5/2 23/6/2
f 23/6/3 24/5/3 22/7/3 21/8/3
f 21/8/4 22/7/4 18/9/4 17/10/4
f 19/11/5 23/6/5 21/8/5 17/12/5
f 24/5/6 20/13/6 18/14/6 22/7/6
f 25/1/1 26/2/1 28/3/1 27/4/1
f 27/4/2 28/3/2 32/5/2 31/6/2
f 31/6/3 32/5/3 30/7/3 29/8/3
f 29/8/4 30/7/4 26/9/4 25/10/4
f 27/11/5 31/6/5 29/8/5 25/12/5
f 32/5/6 28/13/6 26/14/6 30/7/6
f 33/1/1 34/2/1 36/3/1 35/4/1
f 35/4/2 36/3/2 40/5/2 39/6/2
f 39/6/3 40/5/3 38/7/3 37/8/3
f 37/8/4 38/7/4 34/9/4 33/10/4
f 35/11/5 39/6/5 37/8/5 33/12/5
f 40/5/6 36/13/6 34/14/6 38/7/6
f 41/1/1 42/2/1 44/3/1 43/4/1
f 43/4/2 44/3/2 48/5/2 47/6/2
f 47/6/3 48/5/3 46/7/3 45/8/3
f 45/8/4 46/7/4 42/9/4 41/10/4
f 43/11/5 47/6/5 45/8/5 41/12/5
f 48/5/6 44/13/6 42/14/6 46/7/6
f 49/1/1 50/2/1 52/3/1 51/4/1
f 51/4/2 52/3/2 56/5/2 55/6/2
f 55/6/3 56/5/3 54/7/3 53/8/3
f 53/8/4 54/7/4 50/9/4 49/10/4
f 51/11/5 55/6/5 53/8/5 49/12/5
f 56/5/6 52/13/6 50/14/6 54/7/6
f 57/1/1 58/2/1 60/3/1 59/4/1
f 59/4/2 60/3/2 64/5/2 63/6/2
f 63/6/3 64/5/3 62/7/3 61/8/3
f 61/8/4 62/7/4 58/9/4 57/10/4
f 59/11/5 63/6/5 61/8/5 57/12/5
f 64/5/6 60/13/6 58/14/6 62/7/6
f 65/1/1 66/2/1 68/3/1 67/4/1
f 67/4/2 68/3/2 72/5/2 71/6/2
f 71/6/3 72/5/3 70/7/3 69/8/3
f 69/8/4 70/7/4 66/9/4 65/10/4
f 67/11/5 71/6/5 69/8/5 65/12/5
f 72/5/6 68/13/6 66/14/6 70/7/6
f 73/1/1 74/2/1 76/3/1 75/4/1
f 75/4/2 76/3/2 80/5/2 79/6/2
f 79/6/3 80/5/3 78/7/3 77/8/3
f 77/8/4 78/7/4 74/9/4 73/10/4
f 75/11/5 79/6/5 77/8/5 73/12/5
f 80/5/6 76/13/6 74/14/6 78/7/6
f 81/1/1 82/2/1 84/3/1 83/4/1
f 83/4/2 84/3/2 88/5/2 87/6/2
f 87/6/3 88/5/3 86/7/3 85/8/3
f 85/8/4 86/7/4 82/9/4 81/10/4
f 83/11/5 87/6/5 85/8/5 81/12/5
f 88/5/6 84/13/6 82/14/6 86/7/6
f 89/1/1 90/2/1 92/3/1 91/4/1
f 91/4/2 92/3/2 96/5/2 95/6/2
f 95/6/3 96/5/3 94/7/3 93/8/3
f 93/8/4 94/7/4 90/9/4 89/10/4
f 91/11/5 95/6/5 93/8/5 89/12/5
f 96/5/6 92/13/6 90/14/6 94/7/6
f 97/1/1 98/2/1 100/3/1 99/4/1
f 99/4/2 100/3/2 104/5/2 103/6/2
f 103/6/3 104/5/3 102/7/3 101/8/3
f 101/8/4 102/7/4 98/9/4 97/10/4
f 99/11/5 103/6/5 101/8/5 97/12/5
f 104/5/6 100/13/6 98/14/6 102/7/6
f 105/1/1 106/2/1 108/3/1 107/4/1
f 107/4/2 108/3/2 112/5/2 111/6/2
f 111/6/3 112/5/3 110/7/3 109/8/3
f 109/8/4 110/7/4 106/9/4 105/10/4
f 107/11/5 111/6/5 109/8/5 105/12/5
f 112/5/6 108/13/6 106/14/6 110/7/6
f 113/1/1 114/2/1 116/3/1 115/4/1
f 115/4/2 116/3/2 120/5/2 119/6/2
f 119/6/3 120/5/3 118/7/3 117/8/3
f 117/8/4 118/7/4 114/9/4 113/10/4
f 115/11/5 119/6/5 117/8/5 113/12/5
f 120/5/6 116/13/6 114/14/6 118/7/6
f 121/1/1 122/2/1 124/3/1 123/4/1
f 123/4/2 124/3/2 128/5/2 127/6/2
f 127/6/3 128/5/3 126/7/3 125/8/3
f 125/8/4 126/7/4 122/9/4 121/10/4
f 123/11/5 127/6/5 125/8/5 121/12/5
f 128/5/6 124/13/6 122/14/6 126/7/6
f 129/1/1 130/2/1 132/3/1 131/4/1
f 131/4/2 132/3/2 136/5/2 135/6/2
f 135/6/3 136/5/3 134/7/3 133/8/3
f 133/8/4 134/7/4 130/9/4 129/10/4
f 131/11/5 135/6/5 133/8/5 129/12/5
f 136/5/6 132/13/6 130/14/6 134/7/6
f 137/1/1 138/2/1 140/3/1 139/4/1
f 139/4/2 140/3/2 144/5/2 143/6/2
f 143/6/3 144/5/3 142/7/3 141/8/3
f 141/8/4 142/7/4 138/9/4 137/10/4
f 139/11/5 143/6/5 141/8/5 137/12/5
f 144/5/6 140/13/6 138/14/6 142/7/6
f 145/1/1 146/2/1 148/3/1 147/4/1
f 147/4/2 148/3/2 152/5/2 151/6/2
f 151/6/3 152/5/3 150/7/3 149/8/3
f 149/8/4 150/7/4 146/9/4 145/10/4
f 147/11/5 151/6/5 149/8/5 145/12/5
f 152/5/6 148/13/6 146/14/6 150/7/6
f 153/1/1 154/2/1 156/3/1 155/4/1
f 155/4/2 156/3/2 160/5/2 159/6/2
f 159/6/3 160/5/3 158/7/3 157/8/3
f 157/8/4 158/7/4 154/9/4 153/10/4
f 155/11/5 159/6/5 157/8/5 153/12/5
f 160/5/6 156/13/6 154/14/6 158/7/6
f 161/1/1 162/2/1 164/3/1 163/4/1
f 163/4/2 164/3/2 168/5/2 167/6/2
f 167/6/3 168/5/3 166/7/3 165/8/3
f 165/8/4 166/7/4 162/9/4 161/10/4
f 163/11/5 167/6/5 165/8/5 161/12/5
f 168/5/6 164/13/6 162/14/6 166/7/6
f 169/1/1 170/2/1 172/3/1 171/4/1
f 171/4/2 172/3/2 176/5/2 175/6/2
f 175/6/3 176/5/3 174/7/3 173/8/3
f 173/8/4 174/7/4 170/9/4 169/10/4
f 171/11/5 175/6/5 173/8/5 169/12/5
f 176/5/6 172/13/6 170/14/6 174/7/6
f 177/1/1 178/2/1 180/3/1 179/4/1
f 179/4/2 180/3/2 184/5/2 183/6/2
f 183/6/3 184/5/3 182/7/3 181/8/3
f 181/8/4 182/7/4 178/9/4 177/10/4
f 179/11/5 183/6/5 181/8/5 177/12/5
f 184/5/6 180/13/6 178/14/6 182/7/6
f 185/1/1 186/2/1 188/3/1 187/4/1
f 187/4/2 188/3/2 192/5/2 191/6/2
f 191/6/3 192/5/3 190/7/3 189/8/3
f 189/8/4 190/7/4 186/9/4 185/10/4
f 187/11/5 191/6/5 189/8/5 185/12/5
f 192/5/6 188/13/6 186/14/6 190/7/6
f 193/1/1 194/2/1 196/3/1 195/4/1
f 195/4/2 196/3/2 200/5/2 199/6/2
f 199/6/3 200/5/3 198/7/3 197/8/3
f 197/8/4 198/7/4 194/9/4 193/10/4
f 195/11/5 199/6/5 197/8/5 193/12/5
f 200/5/6 196/13/6 194/14/6 198/7/6
f 201/1/1 202/2/1 204/3/1 203/4/1
f 203/4/2 204/3/2 208/5/2 207/6/2
f 207/6/3 208/5/3 206/7/3 205/8/3
f 205/8/4 206/7/4 202/9/4 201/10/4
f 203/11/5 207/6/5 205/8/5 201/12/5
f 208/5/6 204/13/6 202/14/6 206/7/6
f 209/1/1 210/2/1 212/3/1 211/4/1
f 211/4/2 212/3/2 216/5/2 215/6/2
f 215/6/3 216/5/3 214/7/3 213/8/3
f 213/8/4 214/7/4 210/9/4 209/10/4
f 211/11/5 215/6/5 213/8/5 209/12/5
f 216/5/6 212/13/6 210/14/6 214/7/6
f 217/1/1 218/2/1 220/3/1 219/4/1
f 219/4/2 220/3/2 224/5/2 223/6/2
f 223/6/3 224/5/3 222/7/3 221/8/3
f 221/8/4 222/7/4 218/9/4 217/10/4
f 219/11/5 223/6/5 221/8/5 217/12/5
f 224/5/6 220/13/6 218/14/6 222/7/6
f 225/1/1 226/2/1 228/3/1 227/4/1
f 227/4/2 228/3/2 232/5/2 231/6/2
f 231/6/3 232/5/3 230/7/3 229/8/3
f 229/8/4 230/7/4 226/9/4 225/10/4
f 227/11/5 231/6/5 229/8/5 225/12/5
f 232/5/6 228/13/6 226/14/6 230/7/6
f 233/1/1 234/2/1 236/3/1 235/4/1
f 235/4/2 236/3/2 240/5/2 239/6/2
f 239/6/3 240/5/3 238/7/3 237/8/3
f 237/8/4 238/7/4 234/9/4 233/10/4
f 235/11/5 239/6/5 237/8/5 233/12/5
f 240/5/6 236/13/6 234/14/6 238/7/6
f 241/1/1 242/2/1 244/3/1 243/4/1
f 243/4/2 244/3/2 248/5/2 247/6/2
f 247/6/3 248/5/3 246/7/3 245/8/3
f 245/8/4 246/7/4 242/9/4 241/10/4
f 243/11/5 247/6/5 245/8/5 241/12/5
f 248/5/6 244/13/6 242/14/6 246/7/6
f 249/1/1 250/2/1 252/3/1 251/4/1
f 251/4/2 252/3/2 256/5/2 255/6/2
f 255/6/3 256/5/3 254/7/3 253/8/3
f 253/8/4 254/7/4 250/9/4 249/10/4
f 251/11/5 255/6/5 253/8/5 249/12/5
f 256/5/6 252/13/6 250/14/6 254/7/6
f 257/1/1 258/2/1 260/3/1 259/4/1
f 259/4/2 260/3/2 264/5/2 263/6/2
f 263/6/3 264/5/3 262/7/3 261/8/3
f 261/8/4 262/7/4 258/9/4 257/10/4
f 259/11/5 263/6/5 261/8/5 257/12/5
f 264/5/6 260/13/6 258/14/6 262/7/6
f 265/1/1 266/2/1 268/3/1 267/4/1
f 267/4/2 268/3/2 272/5/2 271/6/2
f 271/6/3 272/5/3 270/7/3 269/8/3
f 269/8/4 270/7/4 266/9/4 265/10/4
f 267/11/5 271/6/5 269/8/5 265/12/5
f 272/5/6 268/13/6 266/14/6 270/7/6
f 273/1/1 274/2/1 276/3/1 275/4/1
f 275/4/2 276/3/2 280/5/2 279/6/2
f 279/6/3 280/5/3 278/7/3 277/8/3
f 277/8/4 278/7/4 274/9/4 273/10/4
f 275/11/5 279/6/5 277/8/5 273/12/5
f 280/5/6 276/13/6 274/14/6 278/7/6
f 281/1/1 282/2/1 284/3/1 283/4/1
f 283/4/2 284/3/2 288/5/2 287/6/2
f 287/6/3 288/5/3 286/7/3 285/8/3
f 285/8/4 286/7/4 282/9/4 281/10/4
f 283/11/5 287/6/5 285/8/5 281/12/5
f 288/5/6 284/13/6 282/14/6 286/7/6
f 289/1/1 290/2/1 292/3/1 291/4/1
f 291/4/2 292/3/2 296/5/2 295/6/2
f 295/6/3 296/5/3 294/7/3 293/8/3
f 293/8/4 294/7/4 290/9/4 289/10/4
f 291/11/5 295/6/5 293/8/5 289/12/5
f 296/5/6 292/13/6 290/14/6 294/7/6
f 297/1/1 298/2/1 300/3/1 299/4/1
f 299/4/2 300/3/2 304/5/2 303/6/2
f 303/6/3 304/5/3 302/7/3 301/8/3
f 301/8/4 302/7/4 298/9/4 297/10/4
f 299/11/5 303/6/5 301/8/5 297/12/5
f 304/5/6 300/13/6 298/14/6 302/7/6
f 305/1/1 306/2/1 308/3/1 307/4/1
f 307/4/2 308/3/2 312/5/2 311/6/2
f 311/6/3 312/5/3 310/7/3 309/8/3
f 309/8/4 310/7/4 306/9/4 305/10/4
f 307/11/5 311/6/5 309/8/5 305/12/5
f 312/5/6 308/13/6 306/14/6 310/7/6
f 313/1/1 314/2/1 316/3/1 315/4/1
f 315/4/2 316/3/2 320/5/2 319/6/2
f 319/6/3 320/5/3 318/7/3 317/8/3
f 317/8/4 318/7/4 314/9/4 313/10/4
f 315/11/5 319/6/5 317/8/5 313/12/5
f 320/5/6 316/13/6 314/14/6 318/7/6
f 321/1/1 322/2/1 324/3/1 323/4/1
f 323/4/2 324/3/2 328/5/2 327/6/2
f 327/6/3 328/5/3 326/7/3 325/8/3
f 325/8/4 326/7/4 322/9/4 321/10/4
f 323/11/5 327/6/5 325/8/5 321/12/5
f 328/5/6 324/13/6 322/14/6 326/7/6
o Corpus
v 0.100236 1.991586 -0.766290
v 0.100236 1.991586 -0.590879
v 0.100236 1.991586 -0.766290
v 0.100236 -0.008414 -0.766290
v 0.100236 1.991586 -0.590879
v 0.100236 -0.008414 -0.590879
v -0.088155 1.991586 -0.766290
v -0.088155 -0.008414 -0.766290
v -0.088155 1.991586 -0.590879
v -0.088155 -0.008414 -0.590879
v 0.100236 1.991586 1.284423
v 0.100236 2.132244 1.284423
v 0.100236 1.991586 -0.766290
v 0.100236 2.132244 -0.766290
v 0.100236 1.991586 -0.590879
v 0.100236 2.132244 -0.590879
v -0.088155 2.132244 1.109012
v 0.100236 1.991586 1.109012
v -0.088155 2.132244 -0.590879
v -0.088155 2.132244 -0.766290
v -8.123215 2.132244 -0.590879
v -8.123215 2.132244 -0.766290
v -8.123215 1.991586 -0.766290
v -8.123215 1.991586 -0.590879
v 0.100236 2.132244 1.109012
v -0.088155 2.132244 1.284423
v -8.123215 2.132244 1.284423
v -8.123215 2.132244 1.109012
v -7.946903 2.132244 1.109012
v -7.946903 2.132244 1.284423
v -7.946903 1.991586 -0.590879
v -7.946903 2.132244 -0.766290
v -7.946903 2.132244 -0.590879
v 0.100236 1.991586 1.109012
v 0.100236 -0.008414 1.109012
v 0.100236 1.991586 1.284423
v 0.100236 -0.008414 1.284423
v -0.088155 1.991586 1.109012
v -0.088155 -0.008414 1.109012
v -0.088155 1.991586 1.284423
v -0.088155 -0.008414 1.284423
v 0.088156 1.991586 -0.766290
v 0.088156 1.991586 -0.590879
v -0.088155 1.991586 -0.766290
v -0.088155 1.991586 -0.590879
v -7.946904 1.991586 1.109012
v -7.946904 -0.008414 1.109012
v -7.946904 1.991586 1.284423
v -7.946904 -0.008414 1.284423
v -8.123215 1.991586 1.109012
v -8.123215 -0.008414 1.109012
v -8.123215 1.991586 1.284423
v -8.123215 -0.008414 1.284423
v -7.946904 1.991586 -0.766290
v -7.946904 -0.008414 -0.766290
v -7.946904 -0.008414 -0.590879
v -8.123215 -0.008414 -0.766290
v -8.123215 -0.008414 -0.590879
v -8.123215 2.132244 1.109012
v -8.123215 1.991586 1.109012
v -7.946903 1.991586 1.109012
v -7.946903 2.132244 1.109012
vn -0.0000 -1.0000 -0.0000
vn -0.0000 -0.0000 1.0000
vn -1.0000 -0.0000 -0.0000
vn 1.0000 -0.0000 -0.0000
vn -0.0000 -0.0000 -1.0000
vn -0.0000 1.0000 -0.0000
vt 0.125000 0.500000
vt 0.375000 0.500000
vt 0.375000 0.521384
vt 0.125000 0.521384
vt 0.375000 0.750000
vt 0.625000 0.750000
vt 0.625000 1.000000
vt 0.375000 1.000000
vt 0.375000 0.000000
vt 0.625000 0.000000
vt 0.625000 0.250000
vt 0.375000 0.250000
vt 0.125000 0.750000
vt 0.625000 0.500000
vt 0.375000 0.728616
vt 0.625000 0.728616
vt 0.125000 0.728616
vt 0.875000 0.500000
vt 0.875000 0.521384
vt 0.625000 0.521384
vt 0.375000 0.021384
vt 0.625000 0.021384
vt 0.625000 0.228616
vt 0.375000 0.228616
vt 0.875000 0.728616
vt 0.875000 0.750000
vt 0.625000 0.021384
vt 0.375000 0.228616
s 0
usemtl 
f 335/15/7 329/16/7 330/17/7 337/18/7
f 372/26/11 348/25/11 342/28/11 341/16/11
f 346/29/10 353/30/10 340/20/10 339/19/10
f 339/19/8 340/20/8 354/21/8 368/22/8
f 366/31/7 346/29/7 339/19/7 368/27/7
f 342/28/12 348/32/12 347/33/12 344/34/12
f 341/16/10 342/28/10 344/34/10 343/17/10
f 366/35/9 345/36/9 347/37/9 373/38/9
f 344/34/12 347/33/12 345/39/12 353/30/12
f 373/18/7 343/17/7 346/29/7 366/31/7
f 343/17/10 344/34/10 353/30/10 346/29/10
f 382/15/7 359/18/7 352/18/7 351/15/7
f 352/38/9 349/37/9 350/25/9 351/26/9
f 361/33/12 360/32/12 350/32/12 349/33/12
f 352/18/7 359/18/7 389/18/7 388/18/7
f 360/25/11 382/26/11 351/26/11 350/25/11
f 353/30/12 345/39/12 354/40/12 340/20/12
f 358/24/12 357/41/12 356/36/12 355/24/12
f 380/23/9 355/24/9 356/36/9 378/35/9
f 357/41/11 374/35/11 378/35/11 356/36/11
f 376/22/8 358/21/8 355/21/8 380/22/8
f 368/22/8 354/21/8 358/21/8 376/22/8
f 345/36/11 366/35/11 374/35/11 357/41/11
f 366/31/7 368/27/7 376/27/7 374/31/7
f 354/24/12 345/36/12 357/41/12 358/24/12
f 348/25/11 372/26/11 382/26/11 360/25/11
f 373/38/8 347/37/8 361/37/8 359/42/8
f 347/33/12 348/32/12 360/32/12 361/33/12
f 372/15/7 373/18/7 359/18/7 382/15/7
f 349/37/9 352/38/9 388/38/9 387/37/9
f 389/42/8 390/37/8 387/37/8 388/38/8
f 361/33/12 349/33/12 387/33/12 390/33/12
f 359/42/10 361/37/10 390/37/10 389/42/10
usemtl Material
f 362/28/12 366/32/12 368/40/12 364/20/12
f 365/19/8 364/20/8 368/21/8 369/22/8
f 369/23/9 368/24/9 366/25/9 367/26/9
f 367/15/7 363/16/7 365/19/7 369/27/7
f 363/16/10 362/28/10 364/20/10 365/19/10
f 367/26/11 366/25/11 362/28/11 363/16/11
usemtl Material.001
f 334/19/8 333/20/8 337/21/8 338/22/8
f 338/23/9 337/24/9 335/25/9 336/26/9
f 336/15/7 332/16/7 334/19/7 338/27/7
f 332/16/10 331/28/10 333/20/10 334/19/10
f 336/26/11 335/25/11 331/28/11 332/16/11
f 370/28/12 372/32/12 373/40/12 371/20/12
usemtl Material.002
f 374/28/12 378/32/12 380/40/12 376/20/12
f 377/19/8 376/20/8 380/21/8 381/22/8
f 381/23/9 380/24/9 378/25/9 379/26/9
f 379/15/7 375/16/7 377/19/7 381/27/7
f 375/16/10 374/28/10 376/20/10 377/19/10
f 379/26/11 378/25/11 374/28/11 375/16/11
usemtl Material.003
f 384/19/8 359/20/8 352/21/8 386/22/8
f 386/23/9 352/24/9 351/25/9 385/26/9
f 385/15/7 383/16/7 384/19/7 386/27/7
f 383/16/10 382/28/10 359/20/10 384/19/10
f 385/26/11 351/25/11 382/28/11 383/16/11
