# Blender 4.4.3
# www.blender.org
mtllib Detail.mtl
o Sphere
v 0.000000 0.195090 -0.980785
v 0.000000 0.000000 -1.000000
v 0.000000 -0.195090 -0.980785
v 0.191342 0.195090 -0.961940
v 0.195090 0.000000 -0.980785
v 0.191342 -0.195090 -0.961940
v 0.180240 -0.382683 -0.906127
v 0.375330 0.195090 -0.906127
v 0.382683 0.000000 -0.923879
v 0.375330 -0.195090 -0.906127
v 0.353553 -0.382683 -0.853553
v 0.544895 0.195090 -0.815493
v 0.555570 0.000000 -0.831469
v 0.544895 -0.195090 -0.815493
v 0.513280 -0.382683 -0.768178
v 0.693520 0.195090 -0.693520
v 0.707107 0.000000 -0.707107
v 0.693520 -0.195090 -0.693520
v 0.653281 -0.382683 -0.653281
v 0.815493 0.195090 -0.544895
v 0.831470 0.000000 -0.555570
v 0.815493 -0.195090 -0.544895
v 0.768178 -0.382683 -0.513280
v 0.906127 0.195090 -0.375330
v 0.923879 0.000000 -0.382683
v 0.906127 -0.195090 -0.375330
v 0.853553 -0.382683 -0.353553
v 0.961940 0.195090 -0.191342
v 0.980785 0.000000 -0.195090
v 0.961940 -0.195090 -0.191342
v 0.906127 -0.382683 -0.180240
v 0.980785 0.195090 0.000000
v 1.000000 0.000000 0.000000
v 0.980785 -0.195090 0.000000
v 0.923879 -0.382683 -0.000000
v 0.961940 0.195090 0.191342
v 0.980785 0.000000 0.195090
v 0.961940 -0.195090 0.191342
v 0.906127 -0.382683 0.180240
v 0.906127 0.195090 0.375330
v 0.923879 0.000000 0.382683
v 0.906127 -0.195090 0.375330
v 0.853553 -0.382683 0.353553
v 0.815493 0.195090 0.544895
v 0.831469 0.000000 0.555570
v 0.815493 -0.195090 0.544895
v 0.768178 -0.382683 0.513280
v 0.693520 0.195090 0.693520
v 0.707106 0.000000 0.707107
v 0.693520 -0.195090 0.693520
v 0.653281 -0.382683 0.653281
v 0.544895 0.195090 0.815493
v 0.555570 0.000000 0.831469
v 0.544895 -0.195090 0.815493
v 0.513280 -0.382683 0.768178
v 0.375330 0.195090 0.906127
v 0.382683 0.000000 0.923879
v 0.375330 -0.195090 0.906127
v 0.353553 -0.382683 0.853553
v 0.191342 0.195090 0.961939
v 0.195090 0.000000 0.980785
v 0.191342 -0.195090 0.961939
v 0.180240 -0.382683 0.906127
v -0.000000 0.195090 0.980785
v -0.000000 0.000000 0.999999
v -0.000000 -0.195090 0.980785
v 0.000000 -0.382683 0.923879
v -0.191342 0.195090 0.961939
v -0.195091 0.000000 0.980785
v -0.191342 -0.195090 0.961939
v -0.180240 -0.382683 0.906127
v -0.375330 0.195090 0.906127
v -0.382683 0.000000 0.923879
v -0.375330 -0.195090 0.906127
v -0.353553 -0.382683 0.853553
v -0.544895 0.195090 0.815493
v -0.555570 0.000000 0.831469
v -0.544895 -0.195090 0.815493
v -0.513280 -0.382683 0.768178
v -0.693520 0.195090 0.693520
v -0.707106 0.000000 0.707106
v -0.693520 -0.195090 0.693520
v -0.653281 -0.382683 0.653281
v -0.815493 0.195090 0.544895
v -0.831469 0.000000 0.555569
v -0.815493 -0.195090 0.544895
v -0.768177 -0.382683 0.513280
v -0.906127 0.195090 0.375330
v -0.923879 0.000000 0.382683
v -0.906127 -0.195090 0.375330
v -0.853553 -0.382683 0.353553
v -0.961939 0.195090 0.191341
v -0.980784 0.000000 0.195090
v -0.961939 -0.195090 0.191341
v -0.906127 -0.382683 0.180240
v -0.980785 0.195090 -0.000000
v -0.999999 0.000000 -0.000000
v -0.980785 -0.195090 -0.000000
v -0.923879 -0.382683 -0.000000
v -0.961939 0.195090 -0.191342
v -0.980784 0.000000 -0.195091
v -0.961939 -0.195090 -0.191342
v -0.906127 -0.382683 -0.180240
v -0.906127 0.195090 -0.375330
v -0.923878 0.000000 -0.382683
v -0.906127 -0.195090 -0.375330
v -0.853553 -0.382683 -0.353553
v -0.815493 0.195090 -0.544895
v -0.831468 0.000000 -0.555570
v -0.815493 -0.195090 -0.544895
v -0.768177 -0.382683 -0.513280
v -0.693519 0.195090 -0.693520
v -0.707106 0.000000 -0.707106
v -0.693519 -0.195090 -0.693520
v -0.653281 -0.382683 -0.653281
v -0.544895 0.195090 -0.815493
v -0.555569 0.000000 -0.831469
v -0.544895 -0.195090 -0.815493
v -0.513280 -0.382683 -0.768177
v -0.375330 0.195090 -0.906127
v -0.382683 0.000000 -0.923879
v -0.375330 -0.195090 -0.906127
v -0.353553 -0.382683 -0.853553
v -0.191341 0.195090 -0.961939
v -0.195090 0.000000 -0.980784
v -0.191341 -0.195090 -0.961939
v -0.180240 -0.382683 -0.906127
v 0.000000 -0.382683 -0.923879
vn 0.0975 0.0975 -0.9904
vn 0.0975 -0.0975 -0.9904
vn 0.0938 -0.2890 -0.9527
vn 0.2889 0.0976 -0.9524
vn 0.2889 -0.0976 -0.9524
vn 0.2779 -0.2890 -0.9161
vn 0.4691 0.0975 -0.8777
vn 0.4691 -0.0975 -0.8777
vn 0.4513 -0.2890 -0.8443
vn 0.6314 0.0975 -0.7693
vn 0.6314 -0.0975 -0.7693
vn 0.6073 -0.2890 -0.7400
vn 0.7693 0.0975 -0.6314
vn 0.7693 -0.0975 -0.6314
vn 0.7400 -0.2890 -0.6073
vn 0.8777 0.0975 -0.4691
vn 0.8777 -0.0975 -0.4691
vn 0.8443 -0.2890 -0.4513
vn 0.9524 0.0975 -0.2889
vn 0.9524 -0.0975 -0.2889
vn 0.9161 -0.2890 -0.2779
vn 0.9904 0.0975 -0.0975
vn 0.9904 -0.0975 -0.0975
vn 0.9527 -0.2890 -0.0938
vn 0.9904 0.0975 0.0976
vn 0.9904 -0.0975 0.0976
vn 0.9527 -0.2890 0.0938
vn 0.9524 -0.0975 0.2889
vn 0.9161 -0.2890 0.2779
vn 0.9524 0.0975 0.2889
vn 0.8777 0.0975 0.4691
vn 0.8777 -0.0975 0.4691
vn 0.8443 -0.2890 0.4513
vn 0.7400 -0.2890 0.6073
vn 0.7693 0.0975 0.6314
vn 0.7693 -0.0975 0.6314
vn 0.6314 0.0975 0.7693
vn 0.6314 -0.0975 0.7693
vn 0.6073 -0.2890 0.7400
vn 0.4513 -0.2890 0.8443
vn 0.4691 0.0975 0.8777
vn 0.4691 -0.0975 0.8777
vn 0.2889 0.0975 0.9524
vn 0.2889 -0.0975 0.9524
vn 0.2779 -0.2890 0.9161
vn 0.0975 0.0975 0.9904
vn 0.0975 -0.0975 0.9904
vn 0.0938 -0.2890 0.9527
vn -0.0976 0.0975 0.9904
vn -0.0976 -0.0975 0.9904
vn -0.0938 -0.2890 0.9527
vn -0.2889 0.0975 0.9524
vn -0.2889 -0.0975 0.9524
vn -0.2779 -0.2890 0.9161
vn -0.4691 0.0975 0.8777
vn -0.4691 -0.0975 0.8777
vn -0.4513 -0.2890 0.8443
vn -0.6314 0.0975 0.7693
vn -0.6314 -0.0975 0.7693
vn -0.6073 -0.2890 0.7400
vn -0.7693 -0.0975 0.6314
vn -0.7400 -0.2890 0.6073
vn -0.7693 0.0975 0.6314
vn -0.8777 0.0975 0.4691
vn -0.8777 -0.0975 0.4691
vn -0.8443 -0.2890 0.4513
vn -0.9524 -0.0975 0.2889
vn -0.9161 -0.2890 0.2779
vn -0.9524 0.0975 0.2889
vn -0.9904 0.0975 0.0975
vn -0.9904 -0.0975 0.0975
vn -0.9527 -0.2890 0.0938
vn -0.9527 -0.2890 -0.0938
vn -0.9904 0.0975 -0.0976
vn -0.9904 -0.0975 -0.0976
vn -0.9524 0.0975 -0.2889
vn -0.9524 -0.0975 -0.2889
vn -0.9161 -0.2890 -0.2779
vn -0.8443 -0.2890 -0.4513
vn -0.8777 0.0975 -0.4691
vn -0.8777 -0.0975 -0.4691
vn -0.7693 0.0975 -0.6314
vn -0.7693 -0.0975 -0.6314
vn -0.7400 -0.2890 -0.6073
vn -0.6314 0.0975 -0.7693
vn -0.6314 -0.0975 -0.7693
vn -0.6073 -0.2890 -0.7400
vn -0.4691 0.0975 -0.8777
vn -0.4691 -0.0975 -0.8777
vn -0.4513 -0.2890 -0.8443
vn -0.2889 0.0975 -0.9524
vn -0.2889 -0.0975 -0.9524
vn -0.2779 -0.2890 -0.9161
vn -0.0976 0.0975 -0.9904
vn -0.0976 -0.0975 -0.9904
vn -0.0938 -0.2890 -0.9527
vn -0.0000 1.0000 -0.0000
vn -0.0000 -1.0000 -0.0000
vt 0.750000 0.500000
vt 0.750000 0.562500
vt 0.718750 0.562500
vt 0.718750 0.500000
vt 0.750000 0.437500
vt 0.718750 0.437500
vt 0.750000 0.375000
vt 0.718750 0.375000
vt 0.687500 0.562500
vt 0.687500 0.500000
vt 0.687500 0.437500
vt 0.687500 0.375000
vt 0.656250 0.562500
vt 0.656250 0.500000
vt 0.656250 0.437500
vt 0.656250 0.375000
vt 0.625000 0.562500
vt 0.625000 0.500000
vt 0.625000 0.437500
vt 0.625000 0.375000
vt 0.593750 0.562500
vt 0.593750 0.500000
vt 0.593750 0.437500
vt 0.593750 0.375000
vt 0.562500 0.562500
vt 0.562500 0.500000
vt 0.562500 0.437500
vt 0.562500 0.375000
vt 0.531250 0.562500
vt 0.531250 0.500000
vt 0.531250 0.437500
vt 0.531250 0.375000
vt 0.500000 0.562500
vt 0.500000 0.500000
vt 0.500000 0.437500
vt 0.500000 0.375000
vt 0.468750 0.562500
vt 0.468750 0.500000
vt 0.468750 0.437500
vt 0.468750 0.375000
vt 0.437500 0.500000
vt 0.437500 0.437500
vt 0.437500 0.375000
vt 0.437500 0.562500
vt 0.406250 0.562500
vt 0.406250 0.500000
vt 0.406250 0.437500
vt 0.406250 0.375000
vt 0.375000 0.437500
vt 0.375000 0.375000
vt 0.375000 0.562500
vt 0.375000 0.500000
vt 0.343750 0.562500
vt 0.343750 0.500000
vt 0.343750 0.437500
vt 0.343750 0.375000
vt 0.312500 0.437500
vt 0.312500 0.375000
vt 0.312500 0.562500
vt 0.312500 0.500000
vt 0.281250 0.562500
vt 0.281250 0.500000
vt 0.281250 0.437500
vt 0.281250 0.375000
vt 0.250000 0.562500
vt 0.250000 0.500000
vt 0.250000 0.437500
vt 0.250000 0.375000
vt 0.218750 0.562500
vt 0.218750 0.500000
vt 0.218750 0.437500
vt 0.218750 0.375000
vt 0.187500 0.562500
vt 0.187500 0.500000
vt 0.187500 0.437500
vt 0.187500 0.375000
vt 0.156250 0.562500
vt 0.156250 0.500000
vt 0.156250 0.437500
vt 0.156250 0.375000
vt 0.125000 0.562500
vt 0.125000 0.500000
vt 0.125000 0.437500
vt 0.125000 0.375000
vt 0.093750 0.500000
vt 0.093750 0.437500
vt 0.093750 0.375000
vt 0.093750 0.562500
vt 0.062500 0.562500
vt 0.062500 0.500000
vt 0.062500 0.437500
vt 0.062500 0.375000
vt 0.031250 0.500000
vt 0.031250 0.437500
vt 0.031250 0.375000
vt 0.031250 0.562500
vt 0.000000 0.562500
vt 0.000000 0.500000
vt 0.000000 0.437500
vt 0.000000 0.375000
vt 1.000000 0.375000
vt 1.000000 0.437500
vt 0.968750 0.437500
vt 0.968750 0.375000
vt 1.000000 0.500000
vt 1.000000 0.562500
vt 0.968750 0.562500
vt 0.968750 0.500000
vt 0.937500 0.562500
vt 0.937500 0.500000
vt 0.937500 0.437500
vt 0.937500 0.375000
vt 0.906250 0.437500
vt 0.906250 0.375000
vt 0.906250 0.562500
vt 0.906250 0.500000
vt 0.875000 0.562500
vt 0.875000 0.500000
vt 0.875000 0.437500
vt 0.875000 0.375000
vt 0.843750 0.562500
vt 0.843750 0.500000
vt 0.843750 0.437500
vt 0.843750 0.375000
vt 0.812500 0.562500
vt 0.812500 0.500000
vt 0.812500 0.437500
vt 0.812500 0.375000
vt 0.781250 0.562500
vt 0.781250 0.500000
vt 0.781250 0.437500
vt 0.781250 0.375000
s 0
f 2/1/1 1/2/1 4/3/1 5/4/1
f 3/5/2 2/1/2 5/4/2 6/6/2
f 128/7/3 3/5/3 6/6/3 7/8/3
f 5/4/4 4/3/4 8/9/4 9/10/4
f 6/6/5 5/4/5 9/10/5 10/11/5
f 7/8/6 6/6/6 10/11/6 11/12/6
f 9/10/7 8/9/7 12/13/7 13/14/7
f 10/11/8 9/10/8 13/14/8 14/15/8
f 11/12/9 10/11/9 14/15/9 15/16/9
f 13/14/10 12/13/10 16/17/10 17/18/10
f 14/15/11 13/14/11 17/18/11 18/19/11
f 15/16/12 14/15/12 18/19/12 19/20/12
f 17/18/13 16/17/13 20/21/13 21/22/13
f 18/19/14 17/18/14 21/22/14 22/23/14
f 19/20/15 18/19/15 22/23/15 23/24/15
f 21/22/16 20/21/16 24/25/16 25/26/16
f 22/23/17 21/22/17 25/26/17 26/27/17
f 23/24/18 22/23/18 26/27/18 27/28/18
f 25/26/19 24/25/19 28/29/19 29/30/19
f 26/27/20 25/26/20 29/30/20 30/31/20
f 27/28/21 26/27/21 30/31/21 31/32/21
f 29/30/22 28/29/22 32/33/22 33/34/22
f 30/31/23 29/30/23 33/34/23 34/35/23
f 31/32/24 30/31/24 34/35/24 35/36/24
f 33/34/25 32/33/25 36/37/25 37/38/25
f 34/35/26 33/34/26 37/38/26 38/39/26
f 35/36/27 34/35/27 38/39/27 39/40/27
f 38/39/28 37/38/28 41/41/28 42/42/28
f 39/40/29 38/39/29 42/42/29 43/43/29
f 37/38/30 36/37/30 40/44/30 41/41/30
f 41/41/31 40/44/31 44/45/31 45/46/31
f 42/42/32 41/41/32 45/46/32 46/47/32
f 43/43/33 42/42/33 46/47/33 47/48/33
f 47/48/34 46/47/34 50/49/34 51/50/34
f 45/46/35 44/45/35 48/51/35 49/52/35
f 46/47/36 45/46/36 49/52/36 50/49/36
f 49/52/37 48/51/37 52/53/37 53/54/37
f 50/49/38 49/52/38 53/54/38 54/55/38
f 51/50/39 50/49/39 54/55/39 55/56/39
f 55/56/40 54/55/40 58/57/40 59/58/40
f 53/54/41 52/53/41 56/59/41 57/60/41
f 54/55/42 53/54/42 57/60/42 58/57/42
f 57/60/43 56/59/43 60/61/43 61/62/43
f 58/57/44 57/60/44 61/62/44 62/63/44
f 59/58/45 58/57/45 62/63/45 63/64/45
f 61/62/46 60/61/46 64/65/46 65/66/46
f 62/63/47 61/62/47 65/66/47 66/67/47
f 63/64/48 62/63/48 66/67/48 67/68/48
f 65/66/49 64/65/49 68/69/49 69/70/49
f 66/67/50 65/66/50 69/70/50 70/71/50
f 67/68/51 66/67/51 70/71/51 71/72/51
f 69/70/52 68/69/52 72/73/52 73/74/52
f 70/71/53 69/70/53 73/74/53 74/75/53
f 71/72/54 70/71/54 74/75/54 75/76/54
f 73/74/55 72/73/55 76/77/55 77/78/55
f 74/75/56 73/74/56 77/78/56 78/79/56
f 75/76/57 74/75/57 78/79/57 79/80/57
f 77/78/58 76/77/58 80/81/58 81/82/58
f 78/79/59 77/78/59 81/82/59 82/83/59
f 79/80/60 78/79/60 82/83/60 83/84/60
f 82/83/61 81/82/61 85/85/61 86/86/61
f 83/84/62 82/83/62 86/86/62 87/87/62
f 81/82/63 80/81/63 84/88/63 85/85/63
f 85/85/64 84/88/64 88/89/64 89/90/64
f 86/86/65 85/85/65 89/90/65 90/91/65
f 87/87/66 86/86/66 90/91/66 91/92/66
f 90/91/67 89/90/67 93/93/67 94/94/67
f 91/92/68 90/91/68 94/94/68 95/95/68
f 89/90/69 88/89/69 92/96/69 93/93/69
f 93/93/70 92/96/70 96/97/70 97/98/70
f 94/94/71 93/93/71 97/98/71 98/99/71
f 95/95/72 94/94/72 98/99/72 99/100/72
f 99/101/73 98/102/73 102/103/73 103/104/73
f 97/105/74 96/106/74 100/107/74 101/108/74
f 98/102/75 97/105/75 101/108/75 102/103/75
f 101/108/76 100/107/76 104/109/76 105/110/76
f 102/103/77 101/108/77 105/110/77 106/111/77
f 103/104/78 102/103/78 106/111/78 107/112/78
f 107/112/79 106/111/79 110/113/79 111/114/79
f 105/110/80 104/109/80 108/115/80 109/116/80
f 106/111/81 105/110/81 109/116/81 110/113/81
f 109/116/82 108/115/82 112/117/82 113/118/82
f 110/113/83 109/116/83 113/118/83 114/119/83
f 111/114/84 110/113/84 114/119/84 115/120/84
f 113/118/85 112/117/85 116/121/85 117/122/85
f 114/119/86 113/118/86 117/122/86 118/123/86
f 115/120/87 114/119/87 118/123/87 119/124/87
f 117/122/88 116/121/88 120/125/88 121/126/88
f 118/123/89 117/122/89 121/126/89 122/127/89
f 119/124/90 118/123/90 122/127/90 123/128/90
f 121/126/91 120/125/91 124/129/91 125/130/91
f 122/127/92 121/126/92 125/130/92 126/131/92
f 123/128/93 122/127/93 126/131/93 127/132/93
f 125/130/94 124/129/94 1/2/94 2/1/94
f 126/131/95 125/130/95 2/1/95 3/5/95
f 127/132/96 126/131/96 3/5/96 128/7/96
f 4/3/97 1/2/97 124/129/97 120/125/97 116/121/97 112/117/97 108/115/97 104/109/97 100/107/97 96/97/97 92/96/97 88/89/97 84/88/97 80/81/97 76/77/97 72/73/97 68/69/97 64/65/97 60/61/97 56/59/97 52/53/97 48/51/97 44/45/97 40/44/97 36/37/97 32/33/97 28/29/97 24/25/97 20/21/97 16/17/97 12/13/97 8/9/97
f 7/8/98 11/12/98 15/16/98 19/20/98 23/24/98 27/28/98 31/32/98 35/36/98 39/40/98 43/43/98 47/48/98 51/50/98 55/56/98 59/58/98 63/64/98 67/68/98 71/72/98 75/76/98 79/80/98 83/84/98 87/87/98 91/92/98 95/95/98 99/101/98 103/104/98 107/112/98 111/114/98 115/120/98 119/124/98 123/128/98 127/132/98 128/7/98
